<?xml version="1.0" encoding="utf-8"?>
<!-- Generator: Adobe Illustrator 17.0.2, SVG Export Plug-In . SVG Version: 6.00 Build 0)  -->
<!DOCTYPE svg PUBLIC "-//W3C//DTD SVG 1.1//EN" "http://www.w3.org/Graphics/SVG/1.1/DTD/svg11.dtd">
<svg version="1.1" id="Layer_1" xmlns="http://www.w3.org/2000/svg" xmlns:xlink="http://www.w3.org/1999/xlink" x="0px" y="0px"
	 width="960px" height="269.987px" viewBox="0 0 960 269.987" enable-background="new 0 0 960 269.987" xml:space="preserve">
<g>
	<rect x="665.294" y="70.793" width="180.068" height="55.656"/>
	<g>
		
			<path fill="#FFFFFF" stroke="#FFFFFF" stroke-width="2" stroke-linecap="round" stroke-linejoin="round" stroke-miterlimit="10" d="
			M678.288,79.993h25.688v1.615H680.06v15.684h21.624v1.615H680.06v15.945h24.177v1.615h-25.949V79.993z"/>
		
			<path fill="#FFFFFF" stroke="#FFFFFF" stroke-width="2" stroke-linecap="round" stroke-linejoin="round" stroke-miterlimit="10" d="
			M725.965,79.993h15.059c2.326,0,4.368,0.304,6.123,0.912c1.753,0.608,3.187,1.468,4.299,2.58c0.833,0.868,1.485,1.876,1.954,3.022
			c0.469,1.146,0.703,2.397,0.703,3.751v0.105c0,1.53-0.278,2.901-0.833,4.116c-0.556,1.217-1.347,2.258-2.371,3.126
			c-1.025,0.869-2.24,1.564-3.648,2.084c-1.406,0.521-2.944,0.852-4.612,0.99l12.141,15.788h-2.241l-11.88-15.579h-0.156h-12.766
			v15.579h-1.772L725.965,79.993L725.965,79.993z M740.555,99.273c1.876,0,3.544-0.217,5.002-0.651
			c1.458-0.434,2.692-1.042,3.7-1.824c1.008-0.781,1.772-1.711,2.292-2.788c0.521-1.076,0.781-2.257,0.781-3.543v-0.105
			c0-2.744-0.999-4.888-2.996-6.435c-1.998-1.545-4.803-2.319-8.415-2.319h-13.182v17.664
			C727.736,99.273,740.555,99.273,740.555,99.273z"/>
		
			<path fill="#FFFFFF" stroke="#FFFFFF" stroke-width="2" stroke-linecap="round" stroke-linejoin="round" stroke-miterlimit="10" d="
			M777.081,79.993h1.772v36.474h-1.772V79.993z"/>
		
			<path fill="#FFFFFF" stroke="#FFFFFF" stroke-width="2" stroke-linecap="round" stroke-linejoin="round" stroke-miterlimit="10" d="
			M803.082,79.993h1.772v24.385l24.438-24.385h2.449l-15.892,15.684l16.519,20.791h-2.293L814.6,96.875l-9.746,9.64v9.952h-1.772
			V79.993z"/>
	</g>
	<rect x="665.204" y="131.871" width="277.116" height="55.656"/>
	<g>
		
			<path fill="#FFFFFF" stroke="#FFFFFF" stroke-width="2" stroke-linecap="round" stroke-linejoin="round" stroke-miterlimit="10" d="
			M689.468,143.207h-12.974v-1.615h27.773v1.615H691.24v34.86h-1.772V143.207z"/>
		
			<path fill="#FFFFFF" stroke="#FFFFFF" stroke-width="2" stroke-linecap="round" stroke-linejoin="round" stroke-miterlimit="10" d="
			M738.605,141.331h1.667l17.299,36.735h-1.928l-4.95-10.63h-22.562l-5.002,10.63h-1.824L738.605,141.331z M749.912,165.821
			l-10.525-22.406l-10.473,22.406H749.912z"/>
		
			<path fill="#FFFFFF" stroke="#FFFFFF" stroke-width="2" stroke-linecap="round" stroke-linejoin="round" stroke-miterlimit="10" d="
			M778.1,141.592h1.772v17.299h24.959v-17.299h1.772v36.474h-1.772v-17.56h-24.959v17.56H778.1V141.592z"/>
		
			<path fill="#FFFFFF" stroke="#FFFFFF" stroke-width="2" stroke-linecap="round" stroke-linejoin="round" stroke-miterlimit="10" d="
			M830.466,141.592h25.689v1.615h-23.917v15.685h21.624v1.615h-21.624v15.945h24.177v1.615h-25.949V141.592z"/>
		
			<path fill="#FFFFFF" stroke="#FFFFFF" stroke-width="2" stroke-linecap="round" stroke-linejoin="round" stroke-miterlimit="10" d="
			M878.144,141.592h15.059c2.327,0,4.368,0.304,6.122,0.912c1.754,0.608,3.187,1.468,4.299,2.58
			c0.834,0.868,1.485,1.876,1.954,3.022s0.703,2.397,0.703,3.751v0.105c0,1.53-0.278,2.901-0.833,4.116
			c-0.557,1.217-1.347,2.258-2.371,3.126c-1.025,0.869-2.241,1.564-3.648,2.084c-1.406,0.52-2.944,0.852-4.611,0.99l12.141,15.788
			h-2.241l-11.88-15.579h-0.156h-12.766v15.579h-1.772L878.144,141.592L878.144,141.592z M892.734,160.872
			c1.876,0,3.543-0.217,5.002-0.651c1.459-0.434,2.692-1.042,3.699-1.824c1.007-0.781,1.771-1.711,2.292-2.788
			c0.521-1.076,0.782-2.257,0.782-3.543v-0.105c0-2.744-0.999-4.888-2.996-6.436c-1.998-1.545-4.802-2.319-8.415-2.319h-13.182
			v17.665H892.734z"/>
		
			<path fill="#FFFFFF" stroke="#FFFFFF" stroke-width="2" stroke-linecap="round" stroke-linejoin="round" stroke-miterlimit="10" d="
			M929.26,141.592h1.771v36.474h-1.771V141.592z"/>
	</g>
</g>
<g>
	<rect x="491" y="69.404" fill="#FFFFFF" width="30" height="121"/>
	<rect x="446" y="114.404" fill="#FFFFFF" width="121" height="30"/>
</g>
<g>
	<path fill="#FFFFFF" d="M102.248,127.907c0-3.607,0-7.214,0.001-10.821c0-0.582-0.086-1.18,0.021-1.742
		c0.164-0.859,0.461-1.693,0.701-2.538c0.742,0.427,1.61,0.726,2.2,1.307c1.324,1.303,2.517,2.74,3.75,4.133
		c5.548,6.27,11.093,12.545,16.637,18.819c0.384,0.435,0.702,0.952,1.152,1.301c0.538,0.417,1.111,0.416,1.172-0.465
		c0.056-0.81,0.02-1.627,0.02-2.441c0-6.749-0.03-13.498,0.035-20.246c0.008-0.814,0.544-2.325,0.802-2.318
		c1.532,0.043,1.161,1.396,1.164,2.343c0.026,8.378,0.012,16.755,0.006,25.133c0,0.465,0.031,0.94-0.049,1.393
		c-0.244,1.385-1.172,1.731-2.156,0.706c-1.609-1.675-3.106-3.458-4.648-5.198c-5.476-6.18-10.95-12.363-16.429-18.54
		c-0.461-0.52-0.917-1.062-1.465-1.475c-0.144-0.108-0.877,0.189-0.905,0.37c-0.108,0.68-0.035,1.388-0.035,2.086
		c0.001,6.749,0.029,13.497-0.026,20.246c-0.008,1.04,0.608,2.912-0.831,2.911c-1.814-0.002-1.051-1.978-1.078-3.096
		C102.189,135.82,102.248,131.863,102.248,127.907z"/>
	<path fill="#FFFFFF" d="M252.343,126.915c1.515,0.002,3.032-0.045,4.544,0.013c2.233,0.086,2.608,0.492,2.392,2.781
		c-0.499,5.282-3.248,9.164-7.768,11.753c-8.948,5.125-20.547,0.095-23.035-9.916c-2.283-9.187,4.429-18.392,13.96-19.072
		c4.342-0.31,8.355,0.609,11.643,3.673c0.363,0.339,0.467,0.955,0.691,1.443c-0.618,0.011-1.45,0.288-1.819-0.01
		c-2.968-2.391-6.316-3.351-10.09-3.154c-7.465,0.391-13.473,7.181-12.873,14.62c0.499,6.191,5.943,11.673,12.327,12.413
		c6.228,0.722,12.54-3.31,14.464-9.239c0.904-2.785,0.552-3.29-2.29-3.289c-2.097,0.001-4.195,0.017-6.292-0.004
		c-0.694-0.007-1.415-0.014-2.07-0.206c-0.312-0.091-0.599-0.588-0.696-0.954c-0.043-0.164,0.372-0.594,0.642-0.666
		c0.552-0.148,1.147-0.173,1.724-0.181C249.313,126.899,250.829,126.913,252.343,126.915z"/>
	<path fill="#FFFFFF" d="M179.814,127.789c-0.002-4.196-0.035-8.392,0.012-12.587c0.026-2.337,0.342-2.771,2.578-2.719
		c3.476,0.08,7.086-0.121,10.389,0.747c7.392,1.942,11.873,9.096,10.973,16.546c-0.899,7.431-6.982,13.13-14.591,13.58
		c-2.091,0.124-4.195,0.069-6.292,0.029c-2.731-0.053-3.027-0.323-3.055-3.01C179.784,136.18,179.816,131.984,179.814,127.789z
		 M181.803,127.739c0,2.328,0,4.657,0,6.985c0,7.441,0,7.441,7.47,6.755c6.219-0.571,11.499-5.411,12.452-11.412
		c0.963-6.067-2.253-11.753-7.992-14.488c-3.461-1.649-7.071-1.044-10.644-1.057c-1.275-0.005-1.296,1.058-1.292,2.041
		C181.81,120.289,181.802,124.014,181.803,127.739z"/>
	<path fill="#FFFFFF" d="M33.486,111.745c4.004,0.343,6.972,1.682,8.775,4.93c0.211,0.381-0.067,1.033-0.118,1.559
		c-0.489-0.135-1.094-0.132-1.447-0.429c-1.221-1.026-2.203-2.428-3.556-3.187c-2.265-1.27-4.747-0.991-7.062,0.098
		c-3.501,1.647-4.11,6.264-1.009,8.611c1.832,1.386,4.006,2.325,6.041,3.438c1.628,0.891,3.397,1.574,4.897,2.64
		c4.32,3.068,4.563,8.415,0.62,11.949c-6.291,5.639-13.315,2.269-15.928-2.107c-0.291-0.488-0.523-1.454-0.267-1.745
		c0.805-0.915,1.494-0.17,1.881,0.565c1.985,3.767,5.39,4.063,9.013,3.679c2.986-0.316,5.354-2.512,5.847-5.189
		c0.484-2.63-0.776-4.939-3.674-6.471c-2.259-1.194-4.614-2.205-6.862-3.418c-1.212-0.654-2.439-1.409-3.401-2.376
		c-3.659-3.676-2.489-9.515,2.293-11.485C30.906,112.24,32.426,112.021,33.486,111.745z"/>
	<path fill="#FFFFFF" d="M339.228,143.249c-0.431-0.328-0.899-0.514-1.083-0.854c-0.885-1.634-1.735-3.29-2.522-4.974
		c-3-6.425-5.965-12.866-8.966-19.29c-0.224-0.48-0.628-0.876-0.949-1.31c-0.434,0.481-1.016,0.891-1.278,1.452
		c-3.096,6.636-6.136,13.299-9.211,19.945c-0.683,1.475-1.402,2.937-2.199,4.353c-0.171,0.304-0.747,0.381-1.136,0.562
		c-0.188-0.48-0.561-0.979-0.517-1.436c0.053-0.541,0.476-1.042,0.721-1.568c3.869-8.33,7.734-16.661,11.602-24.991
		c0.245-0.527,0.459-1.076,0.766-1.566c0.675-1.077,1.439-1.12,2.163-0.129c0.271,0.371,0.461,0.805,0.658,1.225
		c3.951,8.419,7.904,16.836,11.832,25.266c0.336,0.722,0.545,1.517,0.699,2.301C339.854,142.469,339.511,142.779,339.228,143.249z"
		/>
	<path fill="#FFFFFF" d="M61.977,128.98c0.001-3.611,0.008-7.223-0.001-10.834c-0.009-3.515-0.016-3.518-3.714-3.529
		c-1.98-0.006-3.964,0.065-5.939-0.042c-0.565-0.031-1.102-0.567-1.652-0.871c0.495-0.353,0.947-0.834,1.499-1.021
		c0.524-0.177,1.152-0.051,1.735-0.051c5.941-0.001,11.882-0.003,17.824,0.004c0.814,0.001,1.657-0.068,2.429,0.125
		c0.413,0.103,0.704,0.697,1.05,1.069c-0.345,0.249-0.679,0.692-1.037,0.712c-1.626,0.09-3.258,0.062-4.888,0.074
		c-0.582,0.004-1.165-0.003-1.747,0.001c-3.527,0.021-3.533,0.021-3.535,3.696c-0.004,6.99,0.035,13.98-0.031,20.969
		c-0.012,1.288,0.662,3.563-0.916,3.61c-1.833,0.054-0.991-2.198-1.034-3.428C61.898,135.973,61.976,132.475,61.977,128.98z"/>
	<path fill="#FFFFFF" d="M296.12,128.834c0,3.724,0.013,7.448-0.011,11.171c-0.005,0.801-0.09,1.614-0.257,2.396
		c-0.054,0.252-0.559,0.641-0.733,0.585c-0.36-0.117-0.854-0.454-0.908-0.767c-0.156-0.907-0.156-1.847-0.157-2.774
		c-0.009-7.215,0.007-14.43-0.008-21.645c-0.007-3.127-0.033-3.141-3.025-3.181c-1.978-0.026-3.957,0.018-5.935-0.014
		c-0.686-0.011-1.376-0.127-2.051-0.259c-0.161-0.032-0.396-0.336-0.378-0.491c0.033-0.3,0.159-0.773,0.356-0.838
		c0.646-0.211,1.341-0.369,2.018-0.372c6.633-0.025,13.266-0.024,19.899-0.002c0.882,0.003,2.217-0.265,2.283,0.952
		c0.074,1.377-1.307,0.984-2.148,1.003c-2.326,0.051-4.656,0.069-6.981-0.004c-1.486-0.046-2.051,0.459-2.013,2.02
		c0.098,4.071,0.033,8.145,0.033,12.218C296.109,128.834,296.115,128.834,296.12,128.834z"/>
	<path fill="#FFFFFF" d="M350.729,127.685c-0.002-4.075-0.003-8.15,0-12.225c0-0.582-0.076-1.192,0.075-1.735
		c0.103-0.369,0.543-0.643,0.832-0.96c0.301,0.277,0.816,0.522,0.864,0.838c0.139,0.912,0.112,1.852,0.112,2.781
		c0.006,6.869,0.015,13.739-0.001,20.608c-0.011,4.65-0.15,4.268,4.442,4.266c4.308-0.002,8.617-0.045,12.923,0.039
		c0.821,0.016,2.355,0.633,2.332,0.817c-0.187,1.479-1.503,1.082-2.453,1.089c-5.355,0.041-10.712,0.049-16.067,0.006
		c-2.867-0.023-3.032-0.232-3.051-3.3C350.712,135.835,350.731,131.76,350.729,127.685z"/>
	<path fill="#FFFFFF" d="M165.367,112.619c0.36,0.148,0.672,0.179,0.747,0.328c0.141,0.281,0.304,0.732,0.176,0.932
		c-0.369,0.577-0.846,1.096-1.338,1.58c-3.653,3.592-7.308,7.183-10.989,10.747c-1.818,1.76-1.834,1.722-0.091,3.422
		c3.668,3.577,7.327,7.165,10.982,10.755c0.494,0.485,1.001,0.974,1.393,1.537c0.134,0.193,0.039,0.71-0.14,0.91
		c-0.175,0.196-0.635,0.309-0.89,0.223c-0.424-0.144-0.837-0.421-1.163-0.737c-4.428-4.298-8.824-8.628-13.267-12.911
		c-1.09-1.051-1.035-1.882,0.028-2.91c4.438-4.29,8.83-8.627,13.253-12.931C164.469,113.175,164.979,112.897,165.367,112.619z"/>
	<path fill="#FFFFFF" d="M87.168,127.756c0,4.06,0.007,8.121-0.006,12.181c-0.003,0.808-0.029,1.625-0.157,2.42
		c-0.043,0.265-0.49,0.702-0.658,0.662c-0.379-0.09-0.909-0.366-1.001-0.678c-0.192-0.648-0.18-1.369-0.18-2.059
		c-0.01-8.237-0.01-16.474,0-24.711c0.001-0.691-0.014-1.412,0.178-2.06c0.091-0.308,0.631-0.58,1.012-0.661
		c0.179-0.038,0.627,0.389,0.667,0.65c0.123,0.796,0.139,1.613,0.141,2.422C87.174,119.867,87.168,123.811,87.168,127.756z"/>
	<path fill="#FFFFFF" d="M146.641,127.769c0,4.075,0.008,8.149-0.007,12.224c-0.003,0.81-0.041,1.63-0.181,2.424
		c-0.046,0.259-0.457,0.604-0.725,0.628c-0.254,0.022-0.711-0.279-0.779-0.521c-0.184-0.655-0.282-1.355-0.283-2.037
		c-0.018-8.382-0.026-16.764,0.005-25.146c0.004-0.952-0.396-2.482,1.092-2.458c1.191,0.02,0.859,1.442,0.866,2.314
		C146.658,119.387,146.641,123.578,146.641,127.769z"/>
	<path fill="#FFFFFF" d="M270.469,127.735c-0.001-3.941-0.01-7.883,0.007-11.824c0.003-0.805,0.05-1.62,0.192-2.409
		c0.047-0.26,0.495-0.67,0.692-0.635c0.38,0.068,0.944,0.346,1.017,0.641c0.193,0.771,0.213,1.598,0.214,2.403
		c0.012,7.999,0.034,15.998-0.026,23.996c-0.008,1.106,0.649,3.058-1.214,2.967c-1.41-0.069-0.843-1.897-0.858-2.967
		C270.436,135.85,270.47,131.792,270.469,127.735z"/>
	<path fill="#FFFFFF" d="M216.893,127.721c0.001,4.078,0.01,8.155-0.007,12.232c-0.003,0.809-0.058,1.626-0.194,2.422
		c-0.04,0.229-0.453,0.552-0.689,0.548c-0.263-0.005-0.691-0.294-0.748-0.53c-0.16-0.667-0.222-1.37-0.223-2.059
		c-0.015-8.271-0.011-16.543-0.012-24.815c0-0.233-0.071-0.497,0.014-0.693c0.291-0.667,0.638-1.311,0.964-1.963
		c0.298,0.642,0.844,1.28,0.855,1.928C216.929,119.099,216.892,123.411,216.893,127.721z"/>
</g>
</svg>
